<?xml version="1.0" encoding="utf-8"?>
<svg version="1.1" xmlns="http://www.w3.org/2000/svg" xmlns:xlink="http://www.w3.org/1999/xlink" x="0px" y="0px"
	 viewBox="0 0 128 128" style="enable-background:new 0 0 128 128;" xml:space="preserve">
<style type="text/css">
	.st0{display:none;}
	.st1{fill:#FFFFFF;}
</style>
<g id="Layer_2" class="st0">
</g>
<g id="Layer_1">
	<g id="person">
		<path class="st1" d="M0,0v128h128V0H0z M105.2,106.7c0-9-7.5-12.4-16.2-16.4c-5.5-2.5-11.1-5-15.3-9.2c-3.1-3.1-0.9-5.5,1.3-7.8
			c3.3-3.6,9-9.6,9-25.2c0-16.9-6.5-25.2-19.8-25.2S44.2,31.1,44.2,48c0,15.6,5.6,21.6,9,25.2c2.2,2.3,4.4,4.7,1.3,7.8
			c-4.2,4.2-9.9,6.8-15.3,9.2c-8.7,3.9-16.2,7.4-16.2,16.4h-3c0-10.9,9.2-15.1,18-19.1c5.2-2.4,10.6-4.8,14.4-8.6
			c1-1,1.1-1.1-1.3-3.7c-3.4-3.7-9.8-10.5-9.8-27.3c0-18.7,7.7-28.2,22.8-28.2c15.2,0,22.8,9.5,22.8,28.2c0,16.8-6.3,23.6-9.8,27.3
			c-2.4,2.6-2.3,2.7-1.3,3.7c3.8,3.8,9.2,6.3,14.4,8.6c8.9,4,18,8.2,18,19.1H105.2z"/>
	</g>
</g>
<path d="M18.8333 95.8332C18.8333 81.4582 37.6667 81.4582 47.0833 71.8748C51.7917 67.0832 37.6667 67.0832 37.6667 43.1248C37.6667 27.1542 43.9429 19.1665 56.5 19.1665C69.0571 19.1665 75.3333 27.1542 75.3333 43.1248C75.3333 67.0832 61.2083 67.0832 65.9167 71.8748C75.3333 81.4582 94.1667 81.4582 94.1667 95.8332" stroke="#232959" stroke-linecap="round"/>
</svg>
